<svg width="708" height="475" viewBox="0 0 708 475" fill="none" xmlns="http://www.w3.org/2000/svg">
<g clip-path="url(#clip0_2652_2044)">
<path d="M249.471 273.367C273.974 230.278 320.714 197.193 370.192 200.38C333.696 240.055 312.414 291.356 310.112 345.206C309.299 365.977 310.559 389.164 296.763 404.717C288.179 414.395 275.058 419.082 262.157 420.065C249.255 421.048 236.357 418.718 223.628 416.398L220.54 417.345C219.364 367.795 224.967 316.455 249.471 273.367Z" fill="#F0F0F0"/>
<path d="M370.266 201.418C333.677 219.026 302.479 248.432 283.327 284.296C279.187 292.05 275.661 300.275 274.123 308.972C272.585 317.674 273.66 325.956 276.633 334.22C279.35 341.775 283.006 349.189 283.839 357.273C284.718 365.794 281.581 373.761 275.936 380.084C269.028 387.821 259.752 392.615 250.517 396.988C240.264 401.844 229.537 406.725 222.275 415.787C221.395 416.885 219.742 415.456 220.621 414.36C233.256 398.593 254.884 395.629 269.881 382.928C276.88 377.002 282.134 368.931 281.802 359.475C281.512 351.205 277.749 343.557 274.931 335.932C271.972 327.924 270.497 319.873 271.558 311.336C272.643 302.603 275.854 294.222 279.778 286.397C288.628 268.748 300.74 252.546 314.614 238.54C330.559 222.44 349.142 209.186 369.559 199.351C370.822 198.743 371.522 200.814 370.266 201.418Z" fill="white"/>
<path d="M288.937 272.31C283.328 268.21 279.36 262.25 277.74 255.495C276.121 248.74 276.956 241.63 280.097 235.434C280.737 234.182 282.713 235.117 282.072 236.37C279.136 242.135 278.359 248.758 279.88 255.045C281.4 261.333 285.119 266.869 290.365 270.656C291.504 271.48 290.07 273.129 288.937 272.31Z" fill="white"/>
<path d="M274.75 330.571C288.805 328.518 301.57 321.245 310.499 310.201C311.383 309.106 313.036 310.535 312.153 311.629C302.84 323.103 289.541 330.645 274.91 332.749C273.515 332.949 273.363 330.769 274.75 330.571Z" fill="white"/>
<path d="M331.639 225.128C333.479 227.167 335.796 228.717 338.383 229.639C340.97 230.561 343.745 230.826 346.46 230.41C347.851 230.193 348.002 232.373 346.62 232.589C343.618 233.034 340.554 232.737 337.693 231.725C334.833 230.713 332.264 229.016 330.211 226.782C330 226.588 329.871 226.32 329.85 226.034C329.829 225.748 329.917 225.465 330.098 225.242C330.288 225.024 330.557 224.889 330.845 224.868C331.134 224.847 331.419 224.941 331.639 225.128Z" fill="white"/>
<path d="M468.64 336.31C467.775 336.47 466.91 336.63 466.037 336.807C454.419 339.023 443 342.178 431.893 346.242C431.03 346.543 430.159 346.86 429.306 347.185C402.651 357.261 378.1 372.197 356.899 391.233C348.47 398.815 340.63 407.028 333.448 415.799C323.529 427.914 313.738 441.838 300.777 449.737C299.434 450.576 298.04 451.331 296.604 451.998L221.936 421.038C221.802 420.883 221.659 420.744 221.524 420.588L218.486 419.488C218.825 419.01 219.187 418.521 219.526 418.043C219.721 417.765 219.933 417.493 220.129 417.215C220.264 417.032 220.4 416.849 220.512 416.675C220.557 416.614 220.603 416.553 220.641 416.509C220.753 416.336 220.875 416.187 220.98 416.031C222.994 413.293 225.031 410.565 227.091 407.847C227.098 407.829 227.098 407.83 227.122 407.819C242.869 387.144 260.482 367.601 280.502 351.352C281.104 350.863 281.713 350.357 282.35 349.883C291.414 342.608 301.059 336.087 311.186 330.383C316.742 327.278 322.451 324.455 328.292 321.927C343.397 315.424 359.432 311.336 375.807 309.813C408.453 306.783 441.704 314.223 466.742 334.724C467.382 335.249 468.007 335.768 468.64 336.31Z" fill="#F0F0F0"/>
<path d="M468.079 337.187C428.26 329.225 385.639 333.927 348.747 351.035C340.771 354.734 333.003 359.18 326.537 365.199C320.068 371.22 315.937 378.48 313.334 386.868C310.953 394.536 309.407 402.655 305.204 409.612C300.773 416.944 293.47 421.418 285.154 423.069C274.979 425.089 264.685 423.333 254.678 421.267C243.567 418.973 232.063 416.414 220.806 419.279C219.442 419.626 218.983 417.49 220.345 417.144C239.929 412.159 258.983 422.81 278.607 421.696C287.764 421.176 296.82 417.894 302.251 410.144C307 403.367 308.602 394.995 310.945 387.211C313.405 379.036 317.075 371.72 323.064 365.542C329.191 359.222 336.802 354.463 344.649 350.577C362.344 341.812 381.773 336.165 401.286 333.332C423.714 330.074 446.534 330.676 468.759 335.111C470.135 335.386 469.446 337.46 468.079 337.187Z" fill="white"/>
<path d="M360.445 344.842C358.436 338.192 358.857 331.045 361.632 324.677C364.408 318.309 369.357 313.135 375.597 310.078C376.861 309.464 377.876 311.399 376.609 312.014C370.794 314.85 366.184 319.671 363.611 325.606C361.039 331.541 360.674 338.2 362.581 344.381C362.994 345.725 360.856 346.178 360.445 344.842Z" fill="white"/>
<path d="M314.028 382.821C326.487 389.641 341.059 391.517 354.84 388.073C356.205 387.731 356.664 389.867 355.301 390.208C340.954 393.765 325.793 391.783 312.843 384.657C311.61 383.977 312.801 382.145 314.028 382.821Z" fill="white"/>
<path d="M422.957 332.87C423.198 335.605 424.115 338.237 425.625 340.53C427.135 342.823 429.191 344.706 431.609 346.008C432.851 346.672 431.658 348.503 430.425 347.844C427.76 346.393 425.492 344.311 423.818 341.781C422.143 339.252 421.114 336.35 420.821 333.331C420.769 333.049 420.827 332.758 420.982 332.517C421.138 332.276 421.38 332.103 421.658 332.033C421.941 331.974 422.236 332.028 422.48 332.185C422.723 332.342 422.894 332.588 422.957 332.87Z" fill="white"/>
<path d="M326.403 387.388C315.946 336.844 302.875 319.993 302.875 319.993L297.881 316.122L291.876 311.459L291.905 310.859L290.481 310.375L290.146 310.115L289.598 309.695L289.51 309.789L289.323 309.982L262.149 300.748L227.675 289.042L211.71 268.299C209.11 264.921 205.763 262.191 201.931 260.322C198.099 258.454 193.886 257.498 189.622 257.529L138.638 257.906C131.744 257.957 125.119 260.584 120.065 265.271L86.5535 296.344L34.3369 321.273L34.2488 321.185L33.7004 321.577L25.6325 325.433L25.9654 327.166L20.9719 330.767C20.9719 330.767 7.9006 346.447 -2.55646 393.478C-5.21661 405.444 -6.52604 431.115 -6.99867 462.747C-7.02241 464.347 -6.72769 465.936 -6.13164 467.421C-5.5356 468.907 -4.65012 470.259 -3.52669 471.399C-2.40327 472.539 -1.06431 473.445 0.412322 474.063C1.88896 474.681 3.47381 475 5.07473 475H283.974L318.784 475C320.384 474.999 321.968 474.681 323.444 474.063C324.919 473.446 326.258 472.541 327.381 471.403C328.504 470.264 329.39 468.914 329.987 467.43C330.584 465.946 330.88 464.359 330.858 462.759C330.396 428.339 329.087 400.365 326.403 387.388Z" fill="#0065B9"/>
<path d="M362.187 44.0781C351.336 44.0781 340.93 48.3871 333.257 56.0571C325.584 63.7271 321.274 74.1298 321.274 84.9768C321.274 95.8238 325.584 106.227 333.257 113.897C340.93 121.567 351.336 125.875 362.187 125.875H667.087C677.938 125.875 688.344 121.567 696.017 113.897C703.689 106.227 708 95.8238 708 84.9768C708 74.1298 703.689 63.7271 696.017 56.0571C688.344 48.3871 677.938 44.0781 667.087 44.0781H362.187Z" fill="#E5E5E5"/>
<path d="M362.187 52.3555C353.532 52.3555 345.232 55.7924 339.112 61.9101C332.992 68.0278 329.554 76.3253 329.554 84.977C329.554 93.6288 332.992 101.926 339.112 108.044C345.232 114.162 353.532 117.599 362.187 117.599H667.087C675.742 117.599 684.042 114.162 690.162 108.044C696.282 101.926 699.72 93.6288 699.72 84.977C699.72 76.3253 696.282 68.0278 690.162 61.9101C684.042 55.7924 675.742 52.3555 667.087 52.3555H362.187Z" fill="white"/>
<path d="M172.136 238.382C209.026 238.382 238.93 208.488 238.93 171.611C238.93 134.735 209.026 104.841 172.136 104.841C135.247 104.841 105.342 134.735 105.342 171.611C105.342 208.488 135.247 238.382 172.136 238.382Z" fill="#FFB8B8"/>
<path d="M155.049 235.112C154.764 234.484 154.479 233.854 154.195 233.222C154.305 233.225 154.413 233.241 154.522 233.244L155.049 235.112Z" fill="#2F2E41"/>
<path d="M103.485 107.877C106.863 105.183 110.811 102.704 115.131 102.843C119.45 102.983 123.83 106.882 122.935 111.109C130.868 97.0666 143.496 86.2667 158.601 80.6046C173.707 74.9424 190.325 74.7799 205.538 80.1455C216.273 83.9315 226.8 91.5059 229.266 102.615C229.899 105.467 230.035 108.594 231.816 110.91C234.062 113.829 238.359 114.49 241.897 113.463C241.933 113.452 241.968 113.442 242.003 113.431C242.601 113.227 243.246 113.207 243.856 113.374C244.465 113.54 245.01 113.886 245.421 114.365C245.832 114.845 246.089 115.437 246.159 116.064C246.23 116.692 246.111 117.326 245.817 117.885L242.779 123.548C246.608 124.401 250.587 124.316 254.376 123.301C255.005 123.136 255.67 123.17 256.28 123.398C256.889 123.625 257.414 124.036 257.78 124.573C258.147 125.111 258.339 125.748 258.329 126.399C258.319 127.049 258.107 127.681 257.724 128.206C247.709 141.952 230.976 150.829 213.9 150.725C201.764 150.651 189.503 146.469 177.692 149.259C173.122 150.339 168.853 152.427 165.196 155.371C161.54 158.315 158.589 162.04 156.56 166.272C154.531 170.505 153.476 175.138 153.472 179.832C153.468 184.525 154.516 189.16 156.537 193.396C152.909 189.429 145.895 190.368 142.183 194.258C138.472 198.148 137.511 203.954 137.885 209.316C138.457 217.518 141.671 225.247 145.06 232.769C116.647 231.875 89.7723 211.95 80.7263 185.002C71.6424 157.94 81.1626 125.677 103.485 107.877Z" fill="#2F2E41"/>
<path opacity="0.2" d="M58.7427 372.128L77.4769 474.022L88.7179 475L58.7427 372.128Z" fill="#003B7A"/>
<path opacity="0.2" d="M265.104 364.443L246.37 473.948L235.129 475L265.104 364.443Z" fill="#003B7A"/>
<path d="M119.464 73.5851C115.872 75.0845 112.124 73.4413 110.552 69.6782C108.956 65.8576 110.446 61.9791 114.096 60.4557C117.746 58.9322 121.427 60.5794 123.049 64.4616C124.646 68.2857 123.172 72.0373 119.464 73.5851ZM112.583 52.9355L109.727 54.1277C109.013 54.4219 108.215 54.4378 107.491 54.1721C106.766 53.9064 106.168 53.3785 105.814 52.6929L105.672 52.4167C102.599 46.8764 102.247 40.143 104.632 32.414C106.841 25.4807 107.759 20.6045 105.914 16.187C103.78 11.0795 99.2243 9.47954 93.4148 11.7972C91.1615 12.7378 90.4445 12.7228 88.6713 14.4812C88.2856 14.8683 87.8259 15.1739 87.3195 15.3796C86.8131 15.5853 86.2705 15.6869 85.7239 15.6785C85.1956 15.6723 84.6739 15.5597 84.19 15.3476C83.7061 15.1355 83.2699 14.8282 82.9074 14.4439C82.209 13.7034 81.8177 12.7256 81.8126 11.7078C81.8074 10.6901 82.1888 9.70833 82.8797 8.9608C85.8601 5.84196 89.4549 3.37457 93.4372 1.71431C105.92 -3.49604 112.203 4.19629 115.079 11.0802C117.891 17.8135 116.309 24.0608 113.767 32.1517C111.637 38.8748 111.761 43.8565 114.181 48.8099C114.355 49.1843 114.453 49.5902 114.467 50.0032C114.48 50.4162 114.411 50.8277 114.261 51.213C114.112 51.5984 113.887 51.9496 113.598 52.2455C113.31 52.5415 112.964 52.7762 112.583 52.9355Z" fill="#0065B9"/>
<path d="M429.536 104.483H368.872C368.679 104.484 368.488 104.447 368.31 104.375C368.131 104.302 367.969 104.194 367.832 104.059C367.696 103.923 367.587 103.761 367.513 103.584C367.439 103.406 367.401 103.215 367.401 103.022C367.401 102.83 367.439 102.639 367.513 102.461C367.587 102.283 367.696 102.122 367.832 101.986C367.969 101.85 368.131 101.743 368.31 101.67C368.488 101.597 368.679 101.56 368.872 101.562H429.536C429.922 101.564 430.291 101.719 430.563 101.993C430.834 102.267 430.987 102.637 430.987 103.022C430.987 103.408 430.834 103.778 430.563 104.052C430.291 104.325 429.922 104.48 429.536 104.483Z" fill="#0065B9"/>
<path d="M506.491 104.969H445.828C445.635 104.971 445.444 104.934 445.265 104.861C445.087 104.788 444.925 104.681 444.788 104.545C444.651 104.409 444.543 104.248 444.469 104.07C444.395 103.892 444.356 103.701 444.356 103.509C444.356 103.316 444.395 103.125 444.469 102.947C444.543 102.769 444.651 102.608 444.788 102.472C444.925 102.336 445.087 102.229 445.265 102.156C445.444 102.083 445.635 102.047 445.828 102.048H506.491C506.684 102.047 506.875 102.083 507.054 102.156C507.232 102.229 507.394 102.336 507.531 102.472C507.668 102.608 507.776 102.769 507.85 102.947C507.924 103.125 507.963 103.316 507.963 103.509C507.963 103.701 507.924 103.892 507.85 104.07C507.776 104.248 507.668 104.409 507.531 104.545C507.394 104.681 507.232 104.788 507.054 104.861C506.875 104.934 506.684 104.971 506.491 104.969Z" fill="#0065B9"/>
<path d="M583.447 105.457H522.783C522.397 105.454 522.028 105.299 521.756 105.025C521.484 104.752 521.332 104.382 521.332 103.996C521.332 103.61 521.484 103.24 521.756 102.966C522.028 102.693 522.397 102.538 522.783 102.535H583.447C583.639 102.534 583.83 102.571 584.009 102.644C584.187 102.716 584.349 102.824 584.486 102.959C584.623 103.095 584.731 103.257 584.806 103.435C584.88 103.612 584.918 103.803 584.918 103.996C584.918 104.189 584.88 104.379 584.806 104.557C584.731 104.735 584.623 104.896 584.486 105.032C584.349 105.168 584.187 105.275 584.009 105.348C583.83 105.421 583.639 105.458 583.447 105.457Z" fill="#0065B9"/>
<path d="M660.402 105.944H599.738C599.353 105.941 598.983 105.786 598.712 105.512C598.44 105.239 598.287 104.869 598.287 104.483C598.287 104.097 598.44 103.727 598.712 103.454C598.983 103.18 599.353 103.025 599.738 103.022H660.402C660.788 103.025 661.157 103.18 661.429 103.454C661.701 103.727 661.853 104.097 661.853 104.483C661.853 104.869 661.701 105.239 661.429 105.512C661.157 105.786 660.788 105.941 660.402 105.944Z" fill="#0065B9"/>
<path d="M399.07 91.0397C405.297 91.0397 410.345 85.9936 410.345 79.7689C410.345 73.5442 405.297 68.498 399.07 68.498C392.843 68.498 387.795 73.5442 387.795 79.7689C387.795 85.9936 392.843 91.0397 399.07 91.0397Z" fill="#0065B9"/>
<path d="M476.491 91.0397C482.718 91.0397 487.765 85.9936 487.765 79.7689C487.765 73.5442 482.718 68.498 476.491 68.498C470.264 68.498 465.216 73.5442 465.216 79.7689C465.216 85.9936 470.264 91.0397 476.491 91.0397Z" fill="#0065B9"/>
<path d="M553.911 91.0397C560.138 91.0397 565.186 85.9936 565.186 79.7689C565.186 73.5442 560.138 68.498 553.911 68.498C547.684 68.498 542.636 73.5442 542.636 79.7689C542.636 85.9936 547.684 91.0397 553.911 91.0397Z" fill="#0065B9"/>
<path d="M631.331 91.0397C637.558 91.0397 642.606 85.9936 642.606 79.7689C642.606 73.5442 637.558 68.498 631.331 68.498C625.105 68.498 620.057 73.5442 620.057 79.7689C620.057 85.9936 625.105 91.0397 631.331 91.0397Z" fill="#0065B9"/>
</g>
<defs>
<clipPath id="clip0_2652_2044">
<rect width="715" height="475" fill="white" transform="translate(-7)"/>
</clipPath>
</defs>
</svg>
