<svg width="848" height="654" viewBox="0 0 848 654" fill="none" xmlns="http://www.w3.org/2000/svg">
<g clip-path="url(#clip0_2636_2)">
<path d="M105.992 26.9941L110.088 364.913L287.078 451.126L282.982 113.208L105.992 26.9941Z" fill="#0065B9"/>
<path d="M52.208 0L-80.043 271.502L99.403 358.913L95.307 20.994L52.208 0Z" fill="white"/>
<path d="M847.597 381.414L490.403 207.422L494.499 545.34L715.345 652.916L847.597 381.414Z" fill="#FF3E3E"/>
<path d="M299 113L303.096 450.918L480.087 537.132L475.991 199.214L299 113Z" fill="#003B7A"/>
<path d="M360.5 382.944L355.5 494.944C355.5 494.944 368.5 600.944 365.5 603.944C362.5 606.944 354.5 612.944 360.5 619.944C366.5 626.944 388.5 631.944 389.5 627.944C390.5 623.944 392.5 509.944 392.5 509.944L399.5 374.944L360.5 382.944Z" fill="#2F2E41"/>
<path opacity="0.2" d="M360.5 382.944L355.5 494.944C355.5 494.944 368.5 600.944 365.5 603.944C362.5 606.944 354.5 612.944 360.5 619.944C366.5 626.944 388.5 631.944 389.5 627.944C390.5 623.944 392.5 509.944 392.5 509.944L399.5 374.944L360.5 382.944Z" fill="black"/>
<path d="M365.5 617.944C365.5 617.944 340.5 636.944 337.5 636.944C334.5 636.944 307.5 645.944 326.5 649.944C345.5 653.944 391.5 651.944 392.5 645.944C393.5 639.944 389.5 621.736 389.5 621.736L365.5 617.944Z" fill="#2F2E41"/>
<path opacity="0.2" d="M365.5 617.944C365.5 617.944 340.5 636.944 337.5 636.944C334.5 636.944 307.5 645.944 326.5 649.944C345.5 653.944 391.5 651.944 392.5 645.944C393.5 639.944 389.5 621.736 389.5 621.736L365.5 617.944Z" fill="black"/>
<path d="M303.5 298.944C303.5 298.944 292.5 302.944 292.5 305.944C292.5 308.944 282.5 346.944 280.5 348.944C278.5 350.944 277.5 359.944 277.5 359.944C277.5 359.944 267.5 382.944 269.5 382.944C271.5 382.944 288.5 378.944 289.5 382.944C290.5 386.944 298.5 357.944 298.5 357.944L315.5 323.944L303.5 298.944Z" fill="#003B7A"/>
<path d="M269.5 386.944C269.5 386.944 272.5 408.944 280.5 410.944C288.5 412.944 280.5 382.944 280.5 382.944L269.5 386.944Z" fill="#FFB8B8"/>
<path d="M295.5 286.945C295.5 286.945 301.5 299.945 304.5 306.945C307.5 313.945 335.5 288.945 335.5 288.945C335.5 288.945 320.5 277.945 320.5 272.945C320.5 267.945 295.5 286.945 295.5 286.945Z" fill="#FFB8B8"/>
<path d="M7.03937 612C13.7457 636.791 36.7164 652.144 36.7164 652.144C36.7164 652.144 48.814 627.304 42.1077 602.513C35.4014 577.723 12.4306 562.369 12.4306 562.369C12.4306 562.369 0.333033 587.209 7.03937 612Z" fill="#003B7A"/>
<path d="M16.8934 606.672C35.2957 624.586 37.5434 652.124 37.5434 652.124C37.5434 652.124 9.95512 650.618 -8.44717 632.704C-26.8495 614.79 -29.0972 587.252 -29.0972 587.252C-29.0972 587.252 -1.50887 588.758 16.8934 606.672Z" fill="#0065B9"/>
<path d="M245.5 652.944C227.502 652.944 209.908 647.607 194.943 637.608C179.978 627.609 168.315 613.397 161.427 596.769C154.539 580.141 152.737 561.843 156.249 544.191C159.76 526.539 168.427 510.324 181.153 497.598C193.88 484.871 210.095 476.204 227.747 472.693C245.399 469.182 263.696 470.984 280.324 477.871C296.952 484.759 311.165 496.423 321.164 511.387C331.163 526.352 336.5 543.946 336.5 561.944C336.473 586.071 326.877 609.201 309.817 626.261C292.757 643.321 269.626 652.917 245.5 652.944ZM245.5 472.944C227.898 472.944 210.69 478.164 196.054 487.944C181.418 497.723 170.011 511.623 163.275 527.886C156.539 544.148 154.776 562.043 158.21 579.307C161.644 596.572 170.121 612.43 182.568 624.877C195.014 637.324 210.873 645.8 228.137 649.234C245.401 652.668 263.296 650.906 279.559 644.17C295.821 637.433 309.721 626.026 319.501 611.39C329.28 596.754 334.5 579.547 334.5 561.944C334.473 538.348 325.088 515.726 308.403 499.041C291.718 482.356 269.096 472.971 245.5 472.944Z" fill="#2F2E41"/>
<path d="M525.5 652.944C507.502 652.944 489.908 647.607 474.943 637.608C459.978 627.609 448.315 613.397 441.427 596.769C434.539 580.141 432.737 561.843 436.249 544.191C439.76 526.539 448.427 510.324 461.153 497.598C473.88 484.871 490.095 476.204 507.747 472.693C525.399 469.182 543.696 470.984 560.324 477.871C576.952 484.759 591.165 496.423 601.164 511.387C611.163 526.352 616.5 543.946 616.5 561.944C616.473 586.071 606.877 609.201 589.817 626.261C572.757 643.321 549.626 652.917 525.5 652.944ZM525.5 472.944C507.897 472.944 490.69 478.164 476.054 487.944C461.418 497.723 450.011 511.623 443.275 527.886C436.539 544.148 434.776 562.043 438.21 579.307C441.644 596.572 450.121 612.43 462.568 624.877C475.014 637.324 490.873 645.8 508.137 649.234C525.401 652.668 543.296 650.906 559.559 644.17C575.821 637.433 589.721 626.026 599.501 611.39C609.28 596.754 614.5 579.547 614.5 561.944C614.473 538.348 605.088 515.726 588.403 499.041C571.718 482.356 549.096 472.971 525.5 472.944Z" fill="#2F2E41"/>
<path d="M245.5 567.944C248.814 567.944 251.5 565.258 251.5 561.944C251.5 558.631 248.814 555.944 245.5 555.944C242.186 555.944 239.5 558.631 239.5 561.944C239.5 565.258 242.186 567.944 245.5 567.944Z" fill="#2F2E41"/>
<path d="M527.5 567.944C530.814 567.944 533.5 565.258 533.5 561.944C533.5 558.631 530.814 555.944 527.5 555.944C524.186 555.944 521.5 558.631 521.5 561.944C521.5 565.258 524.186 567.944 527.5 567.944Z" fill="#2F2E41"/>
<path d="M254.42 553.337L252.58 552.552L304.845 429.931L453.055 432.955L453.342 433.405L526.342 547.405L528.5 560L524.658 548.484L451.945 434.934L306.155 431.958L254.42 553.337Z" fill="#2F2E41"/>
<path d="M410 576L451.938 441L452 433.5L455 439.5L413.002 573.641L522.725 560.875L523 562.853L410 576Z" fill="#2F2E41"/>
<path d="M295.598 454.518L294.17 455.919L402.786 566.644L404.214 565.244L295.598 454.518Z" fill="#2F2E41"/>
<path d="M460.256 402.341L451.635 434.006L453.565 434.531L462.186 402.867L460.256 402.341Z" fill="#2F2E41"/>
<path d="M308.476 424.166L306.524 423.723L311.247 402.945H294.5V389.945H296.5V400.945H313.753L308.476 424.166Z" fill="#2F2E41"/>
<path d="M422.5 388.944C422.5 388.944 422.5 382.944 435.5 385.944C448.5 388.944 488.5 396.944 491.5 395.944C494.5 394.944 493.5 401.944 480.5 404.944C467.5 407.944 452.5 400.944 449.5 398.944C446.5 396.944 422.5 388.944 422.5 388.944Z" fill="#2F2E41"/>
<path d="M386.5 567.944H360.5V577.944H386.5V567.944Z" fill="#0065B9"/>
<path d="M411.5 594.944C407.544 594.944 403.678 593.771 400.389 591.574C397.1 589.376 394.536 586.253 393.022 582.598C391.509 578.943 391.113 574.922 391.884 571.043C392.656 567.163 394.561 563.599 397.358 560.802C400.155 558.005 403.719 556.1 407.598 555.329C411.478 554.557 415.499 554.953 419.154 556.467C422.808 557.98 425.932 560.544 428.129 563.833C430.327 567.122 431.5 570.989 431.5 574.944C431.494 580.247 429.385 585.33 425.636 589.08C421.886 592.829 416.802 594.938 411.5 594.944ZM411.5 556.944C407.94 556.944 404.46 558 401.5 559.978C398.54 561.956 396.233 564.767 394.87 568.056C393.508 571.345 393.151 574.964 393.846 578.456C394.54 581.948 396.255 585.155 398.772 587.672C401.289 590.19 404.497 591.904 407.988 592.598C411.48 593.293 415.099 592.937 418.388 591.574C421.677 590.212 424.489 587.905 426.466 584.945C428.444 581.985 429.5 578.504 429.5 574.944C429.494 570.172 427.596 565.597 424.222 562.223C420.847 558.848 416.272 556.95 411.5 556.944Z" fill="#2F2E41"/>
<path d="M304.5 296.944C317.755 296.944 328.5 286.199 328.5 272.944C328.5 259.69 317.755 248.944 304.5 248.944C291.245 248.944 280.5 259.69 280.5 272.944C280.5 286.199 291.245 296.944 304.5 296.944Z" fill="#FFB8B8"/>
<path d="M380.5 384.945C380.5 384.945 311.5 424.945 312.5 437.945C313.5 450.945 365.5 521.945 365.5 521.945C365.5 521.945 369.5 542.945 373.5 542.945C377.5 542.945 402.5 551.945 403.5 545.945C404.5 539.945 395.5 532.945 396.5 528.945C397.5 524.945 352.5 451.945 352.5 451.945C352.5 451.945 448.807 415.945 428.654 384.945C408.5 353.945 380.5 384.945 380.5 384.945Z" fill="#2F2E41"/>
<path d="M382.5 538.944C382.5 538.944 370.5 541.944 368.5 545.944C366.5 549.944 331.5 562.944 341.5 565.944C351.5 568.944 409.5 569.944 411.5 567.944C413.5 565.944 411.5 542.732 403.5 542.838C395.5 542.944 386.5 545.944 382.5 538.944Z" fill="#2F2E41"/>
<path d="M304.5 309.944L327 282.444C327 282.444 352.5 274.944 363.5 289.944C374.5 304.944 404.5 341.944 414.5 349.944C424.5 357.944 438.5 388.944 433.5 389.944C428.5 390.944 400.5 378.944 389.5 386.944C378.5 394.944 357.5 395.944 356.5 391.944C355.5 387.944 295.5 320.944 295.5 311.944C295.5 302.944 301.894 301.013 301.894 301.013L304.5 309.944Z" fill="#0065B9"/>
<path d="M316.585 389.45L286.415 378.783C284.853 378.231 283.139 379.05 282.586 380.612C282.034 382.174 282.853 383.888 284.415 384.44L314.585 395.106C316.147 395.659 317.861 394.84 318.413 393.278C318.966 391.716 318.147 390.002 316.585 389.45Z" fill="#2F2E41"/>
<path d="M248.5 376.944C248.5 376.944 213.5 386.944 216.5 397.944C219.5 408.944 251.5 384.944 251.5 384.944L248.5 376.944Z" fill="#FFB8B8"/>
<path d="M339.5 289.944C339.5 289.944 325.5 301.944 322.5 315.944C319.5 329.944 304.5 354.944 304.5 354.944L243.5 374.944C243.5 374.944 239.5 393.944 245.5 393.944C251.5 393.944 318.5 379.944 320.5 376.944C322.5 373.944 365.5 316.944 365.5 316.944C365.5 316.944 369.5 285.944 339.5 289.944Z" fill="#003B7A"/>
<path d="M289.593 245.166C289.002 245.675 288.294 246.03 287.532 246.2C287.15 246.268 286.756 246.182 286.436 245.961C286.117 245.74 285.898 245.401 285.828 245.019C285.387 246.243 284.568 247.293 283.489 248.019C282.344 248.616 280.573 248.115 280.408 246.835C280.241 247.807 279.811 248.715 279.164 249.46C278.827 249.817 278.363 250.026 277.872 250.043C277.382 250.059 276.905 249.881 276.545 249.548C277.046 252.289 276.737 255.107 276.894 257.888C277.052 260.67 277.794 263.619 279.895 265.448C282.96 268.115 287.569 267.457 291.6 266.952C292.21 266.824 292.843 266.858 293.435 267.052C294.944 267.695 294.876 269.797 294.896 271.437C295.019 274.316 296.159 277.058 298.112 279.176C300.065 281.295 302.706 282.652 305.565 283.008C307.166 283.255 308.798 282.857 310.105 281.9C311.249 280.93 311.834 279.349 313.146 278.62C315.279 277.434 317.867 279.163 319.427 281.04C320.987 282.918 322.524 285.227 324.941 285.571C328.137 286.025 330.571 282.768 331.765 279.769C333.413 275.565 334.203 271.075 334.087 266.561C333.972 262.048 332.954 257.603 331.093 253.489C324.42 238.942 301.623 236.641 289.593 245.166Z" fill="#2F2E41"/>
<path d="M711.889 652.903L710.111 651.985C733.193 607.361 720.851 549.41 706.433 508.653C696.642 481.259 684.155 454.904 669.155 429.979L670.845 428.91C685.923 453.963 698.476 480.451 708.317 507.985C722.868 549.115 735.298 607.645 711.889 652.903Z" fill="white"/>
<path d="M729.007 429.269L716.032 500.273L717.999 500.633L730.973 429.628L729.007 429.269Z" fill="white"/>
<path d="M642.732 489.763L641.268 491.126L708.267 563.126L709.732 561.763L642.732 489.763Z" fill="white"/>
<path d="M763.181 568.853L729.197 615.864L730.818 617.036L764.803 570.025L763.181 568.853Z" fill="white"/>
<path d="M735 410.444C740.523 410.444 745 405.967 745 400.444C745 394.921 740.523 390.444 735 390.444C729.477 390.444 725 394.921 725 400.444C725 405.967 729.477 410.444 735 410.444Z" fill="#0065B9"/>
<path d="M626 487.444C631.523 487.444 636 482.967 636 477.444C636 471.921 631.523 467.444 626 467.444C620.477 467.444 616 471.921 616 477.444C616 482.967 620.477 487.444 626 487.444Z" fill="white"/>
<path d="M670 497.444C675.523 497.444 680 492.967 680 487.444C680 481.921 675.523 477.444 670 477.444C664.477 477.444 660 481.921 660 487.444C660 492.967 664.477 497.444 670 497.444Z" fill="white"/>
<path d="M650 536.444C655.523 536.444 660 531.967 660 526.444C660 520.921 655.523 516.444 650 516.444C644.477 516.444 640 520.921 640 526.444C640 531.967 644.477 536.444 650 536.444Z" fill="#0065B9"/>
<path d="M775 561.444C780.523 561.444 785 556.967 785 551.444C785 545.921 780.523 541.444 775 541.444C769.477 541.444 765 545.921 765 551.444C765 556.967 769.477 561.444 775 561.444Z" fill="#3F3D56"/>
<path d="M742 572.444C747.523 572.444 752 567.967 752 562.444C752 556.921 747.523 552.444 742 552.444C736.477 552.444 732 556.921 732 562.444C732 567.967 736.477 572.444 742 572.444Z" fill="white"/>
<path d="M765 604.444C770.523 604.444 775 599.967 775 594.444C775 588.921 770.523 584.444 765 584.444C759.477 584.444 755 588.921 755 594.444C755 599.967 759.477 604.444 765 604.444Z" fill="#3F3D56"/>
<path d="M660 422.444C665.523 422.444 670 417.967 670 412.444C670 406.921 665.523 402.444 660 402.444C654.477 402.444 650 406.921 650 412.444C650 417.967 654.477 422.444 660 422.444Z" fill="#003B7A"/>
<path d="M813 651.444H-90V653.444H813V651.444Z" fill="#2F2E41"/>
<path d="M64.9354 444.372L-19.9351 395.372L-68.9351 480.243L15.9354 529.243L64.9354 444.372Z" fill="#FF3E3E"/>
<path d="M18 546.307C13.6488 546.307 9.39535 545.016 5.77747 542.599C2.15959 540.182 -0.660215 536.746 -2.32534 532.726C-3.99047 528.706 -4.42614 524.282 -3.57727 520.015C-2.72839 515.747 -0.633101 511.827 2.44365 508.75C5.52041 505.674 9.44045 503.578 13.708 502.729C17.9756 501.88 22.3991 502.316 26.419 503.981C30.439 505.646 33.875 508.466 36.2923 512.084C38.7097 515.702 40 519.955 40 524.307C39.9934 530.139 37.6735 535.731 33.5491 539.856C29.4247 543.98 23.8327 546.3 18 546.307ZM18 504.307C14.0444 504.307 10.1776 505.48 6.8886 507.677C3.59962 509.875 1.03617 512.998 -0.47758 516.653C-1.99133 520.307 -2.38741 524.329 -1.6157 528.208C-0.843998 532.088 1.06082 535.652 3.85787 538.449C6.65492 541.246 10.2186 543.151 14.0982 543.922C17.9778 544.694 21.9992 544.298 25.6537 542.784C29.3082 541.27 32.4318 538.707 34.6294 535.418C36.827 532.129 38 528.262 38 524.307C37.9941 519.004 35.8851 513.92 32.1356 510.171C28.3862 506.422 23.3025 504.313 18 504.307Z" fill="white"/>
</g>
<defs>
<clipPath id="clip0_2636_2">
<rect width="937.597" height="653.445" fill="white" transform="translate(-90)"/>
</clipPath>
</defs>
</svg>
