<svg width="525" height="532" viewBox="0 0 525 532" fill="none" xmlns="http://www.w3.org/2000/svg">
<g clip-path="url(#clip0_2652_1293)">
<path d="M117.675 88.7441L113.675 109.744L133.618 115.366L131.14 92.9463L117.675 88.7441Z" fill="#A0616A"/>
<path d="M0 523.445C0 524.105 0.53003 524.635 1.19006 524.635H523.48C524.14 524.635 524.67 524.105 524.67 523.445C524.67 522.785 524.14 522.255 523.48 522.255H1.19006C0.53003 522.255 0 522.785 0 523.445Z" fill="#3F3D56"/>
<path d="M356.037 238.309H150.369C127.046 238.309 108.139 257.216 108.139 280.539V479.971C108.139 503.294 127.046 522.201 150.369 522.201H356.037C379.36 522.201 398.267 503.294 398.267 479.971V280.539C398.267 257.216 379.36 238.309 356.037 238.309Z" fill="white"/>
<path d="M356.038 523.201H150.369C126.532 523.201 107.139 503.808 107.139 479.971V280.539C107.139 256.702 126.532 237.309 150.369 237.309H356.038C379.875 237.309 399.268 256.702 399.268 280.539V479.971C399.268 503.808 379.874 523.201 356.038 523.201ZM150.369 239.309C127.634 239.309 109.139 257.804 109.139 280.539V479.971C109.139 502.706 127.634 521.201 150.369 521.201H356.038C378.772 521.201 397.268 502.706 397.268 479.971V280.539C397.268 257.804 378.772 239.309 356.038 239.309L150.369 239.309Z" fill="#3F3D56"/>
<path d="M370.935 324.77H288.267C284.761 324.77 281.908 321.917 281.908 318.411C281.908 314.904 284.761 312.052 288.267 312.052H370.935C374.441 312.052 377.294 314.904 377.294 318.411C377.294 321.917 374.441 324.77 370.935 324.77Z" fill="#003B7A"/>
<path d="M293.382 374.777H213.025C210.999 374.777 209.351 373.129 209.351 371.103C209.351 369.077 210.999 367.43 213.025 367.43H293.382C295.408 367.43 297.055 369.077 297.055 371.103C297.055 373.129 295.408 374.777 293.382 374.777Z" fill="#003B7A"/>
<path d="M179.805 251.967H133.927C133.756 251.967 133.617 252.106 133.617 252.277V257.618C133.617 257.789 133.756 257.928 133.927 257.928H179.805C179.976 257.928 180.115 257.789 180.115 257.618V252.277C180.115 252.106 179.976 251.967 179.805 251.967Z" fill="#003B7A"/>
<path d="M334.336 257.928C336.97 257.928 339.105 255.793 339.105 253.159C339.105 250.525 336.97 248.39 334.336 248.39C331.702 248.39 329.567 250.525 329.567 253.159C329.567 255.793 331.702 257.928 334.336 257.928Z" fill="#3F3D56"/>
<path d="M347.451 257.928C350.085 257.928 352.22 255.793 352.22 253.159C352.22 250.525 350.085 248.39 347.451 248.39C344.817 248.39 342.682 250.525 342.682 253.159C342.682 255.793 344.817 257.928 347.451 257.928Z" fill="#3F3D56"/>
<path d="M360.566 257.928C363.2 257.928 365.335 255.793 365.335 253.159C365.335 250.525 363.2 248.39 360.566 248.39C357.932 248.39 355.797 250.525 355.797 253.159C355.797 255.793 357.932 257.928 360.566 257.928Z" fill="#3F3D56"/>
<path d="M149.868 394.444C149.868 395.104 150.398 395.634 151.058 395.634H355.348C356.008 395.634 356.538 395.104 356.538 394.444C356.538 393.784 356.008 393.254 355.348 393.254H151.058C150.398 393.254 149.868 393.784 149.868 394.444Z" fill="#3F3D56"/>
<path d="M212.173 100.916C216.522 97.3227 221.902 96.6538 224.188 99.422C226.475 102.19 224.802 107.346 220.451 110.941C218.733 112.4 216.69 113.427 214.493 113.936L195.873 128.929L189.023 120.042L208.107 106.204C209.02 104.142 210.415 102.329 212.173 100.916Z" fill="#A0616A"/>
<path d="M104.553 134.747C104.543 134.084 104.549 128.3 108.831 124.644C113.75 120.444 120.691 122.144 123.126 122.74C128.749 124.117 129.21 126.53 134.492 129.009C144.372 133.646 131.992 131.272 137.871 129.785C139.907 129.271 169.184 127.24 176.471 122.755C190.645 114.031 200.302 108.741 200.302 108.741L206.615 121.368C206.615 121.368 197.486 134.061 184.638 143.465C171.459 153.111 164.869 157.934 154.855 159.797C153.992 159.958 132.783 163.579 115.7 150.816C111.803 147.905 104.664 142.571 104.553 134.747Z" fill="#0065B9"/>
<path d="M124.137 102.635C136.283 102.635 146.129 92.7883 146.129 80.6421C146.129 68.4959 136.283 58.6494 124.137 58.6494C111.99 58.6494 102.144 68.4959 102.144 80.6421C102.144 92.7883 111.99 102.635 124.137 102.635Z" fill="#A0616A"/>
<path d="M296.375 228.397L273.725 205.213L262.034 217.409L278.908 239.638L295.646 241.553L296.375 228.397Z" fill="#A0616A"/>
<path d="M167.046 184.921C168.371 185.031 172.581 185.875 176.604 183.661C179.351 182.15 180.759 179.904 181.235 179.189C187.136 170.326 209.787 156.505 230.116 155.654C234.719 155.462 237.749 155.995 240.503 157.431C244.409 159.466 245.968 162.382 250.924 169.214C253.635 172.95 256.634 176.47 259.378 180.183C275.44 201.919 281.529 203.626 280.906 210.594C280.216 218.326 271.877 225.661 266.335 224.814C264.066 224.468 263.187 222.889 260.154 219.695C251.263 210.327 247.585 212.058 241.254 204.882C233.864 196.505 234.831 189.559 230.976 189.291C227.4 189.042 225.88 194.968 218.247 202.839C214.753 206.441 212.266 208.094 204.688 213.351C175.177 233.824 174.706 235.262 168.751 236.895C166.145 237.61 147.651 242.68 141.063 234.611C130.754 221.984 155.109 183.93 167.046 184.921Z" fill="#2F2E41"/>
<path d="M289.451 233.636C291.116 232.888 293.064 232.014 293.691 230.002C294.115 228.642 293.871 226.964 292.994 225.804C291.983 224.466 290.486 224.29 290.547 224.053C290.639 223.693 294.178 223.834 298.064 225.207C298.797 225.466 302.119 226.68 306.344 229.979C309.729 232.622 309.274 233.151 311.397 234.675C317.913 239.353 324.025 235.666 327.551 240.053C328.912 241.746 329.492 244.15 328.919 246.094C327.769 249.997 322.176 251.34 319.12 252.034C311.758 253.704 306.186 252.34 300.368 251.36C280.582 248.026 269.464 251.063 267.976 246.479C267.695 245.611 268.152 245.685 269.678 239.318C271.184 233.034 271.134 231.309 272.417 230.806C274.347 230.048 275.643 233.494 280.506 234.673C284.815 235.718 288.371 234.121 289.451 233.636Z" fill="#0065B9"/>
<path d="M256.108 304.242L250.385 272.34L233.862 275.866L235.342 303.736L248.117 314.719L256.108 304.242Z" fill="#A0616A"/>
<path d="M173.508 195.645C174.542 196.48 177.552 199.542 182.125 199.97C185.245 200.262 187.672 199.194 188.467 198.87C198.327 194.85 224.831 196.133 242.129 206.844C246.047 209.27 248.254 211.413 249.727 214.147C251.816 218.025 251.468 221.313 251.733 229.748C251.878 234.363 252.383 238.96 252.568 243.572C253.653 270.577 257.733 275.409 253.305 280.825C248.392 286.835 237.374 288.222 233.263 284.41C231.58 282.848 231.739 281.049 231.024 276.702C228.927 263.958 224.911 263.325 223.703 253.833C222.291 242.751 226.992 237.547 223.952 235.16C221.133 232.946 216.549 236.996 205.812 239.223C200.899 240.242 197.913 240.212 188.69 240.307C152.775 240.676 151.578 241.602 145.733 239.608C143.176 238.736 125.026 232.547 124.105 222.171C122.665 205.934 164.187 188.122 173.508 195.645Z" fill="#2F2E41"/>
<path d="M247.436 304.689C249.234 305.006 251.337 305.376 252.985 304.064C254.1 303.176 254.84 301.65 254.766 300.198C254.681 298.523 253.541 297.537 253.724 297.375C254.003 297.129 256.853 299.233 259.296 302.551C259.757 303.177 261.824 306.047 263.468 311.149C264.785 315.237 264.111 315.42 265.012 317.873C267.777 325.402 274.904 325.784 275.359 331.394C275.534 333.559 274.664 335.874 273.099 337.16C269.956 339.744 264.574 337.715 261.655 336.573C254.626 333.821 250.781 329.564 246.517 325.486C232.017 311.616 221.113 307.886 222.456 303.257C222.71 302.381 223.047 302.699 227.884 298.288C232.659 293.934 233.587 292.478 234.931 292.782C236.953 293.239 236.091 296.818 239.453 300.524C242.432 303.809 246.271 304.484 247.436 304.689Z" fill="#0065B9"/>
<path d="M127.135 84.8465C127.991 81.7838 126.916 80.6677 128.012 79.293C128.012 79.2929 128.453 78.7397 132.396 77.2469C131.233 70.4965 132.104 69.355 132.104 69.355C133.108 68.0395 135.119 67.7215 136.488 67.8935C139.384 68.2575 139.897 70.8752 141.75 70.8165C144.309 70.7353 147.379 65.6117 146.426 61.1708C145.649 57.5483 142.298 54.8582 141.457 55.325C140.624 55.7878 137.626 53.7469 136.488 54.1558C135.712 54.4351 132.056 54.0635 131.227 54.4481C130.322 54.8681 127.73 57.4829 127.482 57.1534C125.759 54.864 125.796 54.0646 124.797 53.5712C123.026 52.6969 121.101 54.3129 117.782 55.9095C110.952 59.1946 108.952 57.235 105.798 60.0016C104.204 61.3992 103.35 64.0702 101.706 69.355C99.4065 76.7458 98.2569 80.4412 99.3673 83.9696C100.5 87.568 102.167 86.7848 104.629 91.8615C107.368 97.5128 106.424 100.798 109.013 102.092C111.014 103.092 114.229 102.455 115.443 100.63C117.522 97.5055 112.149 93.2785 113.982 88.354C115.107 85.3312 118.577 83.0391 120.705 83.6773C123.111 84.399 123.288 88.7131 124.797 88.6463C126.089 88.5892 126.986 85.3802 127.135 84.8465Z" fill="#2F2E41"/>
<path d="M110.474 105.891C114.975 100.845 133.306 106.068 135.027 114.076C135.734 117.369 133.122 118.76 133.858 122.552C134.934 128.099 141.027 127.721 145.549 133.367C151.97 141.383 145.355 149.219 152.564 162.596C154.105 165.455 155.403 167.864 158.118 170.196C164.347 175.546 170.145 173.711 173.317 178.672C175.689 182.382 174.715 186.954 174.486 188.026C173.55 192.418 171.013 193.488 169.225 197.087C166.25 203.074 169.618 207.47 169.81 214.624C170.049 223.575 165.292 235.983 155.78 240.054C145.092 244.627 132.203 237.052 125.966 229.531C122.244 225.043 121.163 220.903 119.535 215.793C112.258 192.956 108.147 195.022 102.582 176.918C96.2206 156.223 94.9699 131.978 102.582 124.306C103.591 123.289 106.368 120.938 108.136 116.706C110.515 111.011 108.46 108.15 110.474 105.891Z" fill="#0065B9"/>
<path d="M176.974 223.358C180.463 227.792 181.004 233.186 178.182 235.406C175.36 237.626 170.245 235.831 166.755 231.396C165.337 229.643 164.359 227.577 163.903 225.368L149.356 206.398L156.873 200.664L171.784 219.167C173.824 220.13 175.603 221.567 176.974 223.358Z" fill="#A0616A"/>
<path d="M123.698 125.123C124.345 124.978 130.008 123.804 134.461 127.25C139.576 131.209 139.328 138.351 139.241 140.855C139.04 146.642 136.773 147.585 135.424 153.261C132.9 163.88 137.707 173.749 140.362 179.201C141.281 181.088 144.234 186.863 150.112 193.082C161.544 205.177 171.744 211.542 171.744 211.542L160.786 221.282C160.786 221.282 143.331 215.962 131.504 205.303C119.372 194.369 100.715 155.684 96.8471 146.26C96.514 145.449 101.232 158.642 110.241 139.315C112.295 134.906 116.06 126.828 123.698 125.123Z" fill="#0065B9"/>
<path d="M273.945 421.686C266.98 422.754 261.885 427.213 262.565 431.646C263.245 436.078 269.442 438.805 276.41 437.736C279.199 437.347 281.854 436.296 284.154 434.671L313.608 429.775L311.642 418.132L282.254 422.29C279.573 421.428 276.723 421.221 273.945 421.686Z" fill="#FFB6B6"/>
<path d="M400.87 385.396L389.449 409.631L332.035 428.958L284.392 431.5L283.199 420.057L334.832 409.261L387.815 384.224L400.87 385.396Z" fill="#0065B9"/>
<path d="M294.976 477.416L284.722 503.352L271.453 494.304L279.294 467.162L294.976 477.416Z" fill="#FFB6B6"/>
<path d="M252.152 467.766L225.01 493.701L235.867 505.161L263.612 483.448L252.152 467.766Z" fill="#FFB6B6"/>
<path d="M405.957 383.324L405.655 381.213L398.719 367.642L375.799 373.673L380.021 392.371L405.957 383.324Z" fill="#FFB6B6"/>
<path d="M396.306 473.798L397.011 482.857C397.011 482.857 399.925 520.844 376.402 523.86C352.879 526.875 342.625 529.891 328.753 506.368L307.039 467.766L294.356 482.857L277.484 469.575C277.484 469.575 289.548 422.529 299.198 420.72C300.404 420.494 301.611 420.38 302.798 420.356C310.788 420.189 318.319 424.097 323.099 430.501L350.466 467.163L360.418 462.639L396.306 473.798Z" fill="#2F2E41"/>
<path d="M266.024 502.145L271.453 491.892L287.135 502.748C287.135 502.748 290.754 516.018 285.325 517.827C279.897 519.637 264.818 517.224 264.818 517.224C264.818 517.224 237.073 523.256 236.47 517.827C235.867 512.399 249.136 511.193 249.136 511.193L266.024 502.145Z" fill="#003B7A"/>
<path d="M325.134 494.908L283.215 468.495L261.802 487.67L247.327 470.781C247.327 470.781 273.866 431.576 281.707 429.767C289.548 427.957 302.214 426.751 302.214 426.751L340.816 462.337L325.134 494.908Z" fill="#2F2E41"/>
<path d="M224.406 491.289L238.279 506.368L236.45 507.933C236.45 507.933 232.851 523.608 224.406 518.305C215.962 513.003 215.359 511.796 215.359 511.796C215.359 511.796 191.233 517.225 188.82 507.574C186.408 497.924 193.042 499.733 193.042 499.733L199.067 503.352L224.406 491.289Z" fill="#003B7A"/>
<path d="M383.037 380.308C393.697 380.308 402.338 371.667 402.338 361.007C402.338 350.347 393.697 341.706 383.037 341.706C372.377 341.706 363.736 350.347 363.736 361.007C363.736 371.667 372.377 380.308 383.037 380.308Z" fill="#FFB6B6"/>
<path d="M378.513 388.45L406.259 380.006C406.259 380.006 417.115 405.338 415.306 416.798C413.496 428.258 397.011 482.856 397.011 482.856L360.419 462.638C360.419 462.638 359.815 450.575 358.006 445.147C356.197 439.718 350.467 423.132 363.133 409.259C375.799 395.386 378.513 388.45 378.513 388.45Z" fill="#0065B9"/>
<path d="M317.448 515.102C312.933 520.512 312.064 527.227 315.507 530.1C318.95 532.973 325.4 530.916 329.917 525.504C331.75 523.367 333.046 520.822 333.694 518.081L352.536 494.919L343.358 487.491L324.077 510.057C321.496 511.185 319.223 512.915 317.448 515.102Z" fill="#FFB6B6"/>
<path d="M399.795 400.619L406.353 426.595L374.256 477.974L341.49 510.905L330.87 502.095L363.915 460.978L388.963 408L399.795 400.619Z" fill="#0065B9"/>
<path d="M365.243 357.689C370.193 357.678 370.475 357.711 371.275 357.689C377.415 357.527 379.02 355.112 382.132 355.277C387.686 355.571 380.355 383.418 377.307 396.291C374.317 408.917 384.422 420.231 385.148 421.021C395.404 432.176 413.42 434.215 416.512 429.465C419.014 425.62 410.146 419.774 412.29 411.37C414.385 403.156 424.061 404.03 426.765 396.291C429.598 388.187 420.079 384.099 414.099 364.324C410.665 352.967 411.272 350.851 408.068 343.817C399.502 325.015 357.514 333.02 362.228 350.452C363.14 353.823 360.713 357.7 365.243 357.689Z" fill="#2F2E41"/>
<path d="M426.877 128.561H224.026C218.289 128.561 213.623 123.894 213.623 118.157V10.4035C213.623 4.66733 218.289 0 224.026 0H426.877C432.613 0 437.28 4.66732 437.28 10.4035V118.157C437.28 123.894 432.613 128.561 426.877 128.561Z" fill="white"/>
<path d="M426.877 128.561H224.026C218.289 128.561 213.623 123.894 213.623 118.157V10.4035C213.623 4.66733 218.289 0 224.026 0H426.877C432.613 0 437.28 4.66732 437.28 10.4035V118.157C437.28 123.894 432.613 128.561 426.877 128.561ZM224.026 1.73731C219.248 1.73731 215.36 5.62505 215.36 10.4035V118.157C215.36 122.936 219.248 126.824 224.026 126.824H426.877C431.655 126.824 435.543 122.936 435.543 118.157V10.4035C435.543 5.62505 431.655 1.73731 426.877 1.73731H224.026Z" fill="#3F3D56"/>
<path d="M411.221 13.0303C412.66 13.0303 413.827 11.8636 413.827 10.4243C413.827 8.98509 412.66 7.81836 411.221 7.81836C409.781 7.81836 408.615 8.98509 408.615 10.4243C408.615 11.8636 409.781 13.0303 411.221 13.0303Z" fill="#3F3D56"/>
<path d="M418.17 13.0303C419.609 13.0303 420.776 11.8636 420.776 10.4243C420.776 8.98509 419.609 7.81836 418.17 7.81836C416.731 7.81836 415.564 8.98509 415.564 10.4243C415.564 11.8636 416.731 13.0303 418.17 13.0303Z" fill="#3F3D56"/>
<path d="M425.119 13.0303C426.558 13.0303 427.725 11.8636 427.725 10.4243C427.725 8.98509 426.558 7.81836 425.119 7.81836C423.68 7.81836 422.513 8.98509 422.513 10.4243C422.513 11.8636 423.68 13.0303 425.119 13.0303Z" fill="#3F3D56"/>
<path d="M228.39 52.5537C227.671 52.5537 227.087 53.1382 227.087 53.8567C227.087 54.207 227.222 54.5311 227.468 54.7703C227.715 55.0239 228.04 55.1597 228.39 55.1597H423.382C424.1 55.1597 424.685 54.5752 424.685 53.8567C424.685 53.5063 424.549 53.1823 424.304 52.9431C424.056 52.6894 423.732 52.5537 423.382 52.5537H228.39Z" fill="#0065B9"/>
<path d="M399.059 52.1191V55.5938H228.39C227.912 55.5938 227.478 55.4026 227.165 55.0812C226.843 54.7685 226.652 54.3342 226.652 53.8564C226.652 52.9009 227.434 52.1191 228.39 52.1191H399.059Z" fill="#003B7A"/>
<path d="M421.21 45.6045H403.837C401.921 45.6045 400.362 44.0462 400.362 42.1299C400.362 40.2136 401.921 38.6553 403.837 38.6553H421.21C423.126 38.6553 424.685 40.2136 424.685 42.1299C424.685 44.0462 423.126 45.6045 421.21 45.6045Z" fill="#0065B9"/>
<path d="M307.416 27.3623H229.693C227.777 27.3623 226.218 25.804 226.218 23.8877C226.218 21.9714 227.777 20.4131 229.693 20.4131H307.416C309.332 20.4131 310.891 21.9714 310.891 23.8877C310.891 25.804 309.332 27.3623 307.416 27.3623Z" fill="#0065B9"/>
<path d="M228.39 91.6426C227.671 91.6426 227.087 92.2271 227.087 92.9456C227.087 93.2959 227.222 93.6199 227.468 93.8592C227.715 94.1128 228.04 94.2485 228.39 94.2485H423.382C424.1 94.2485 424.685 93.6641 424.685 92.9456C424.685 92.5952 424.549 92.2712 424.304 92.032C424.056 91.7783 423.732 91.6426 423.382 91.6426H228.39Z" fill="#0065B9"/>
<path d="M332.173 91.209V94.6836H228.39C227.912 94.6836 227.478 94.4925 227.165 94.1711C226.843 93.8584 226.652 93.424 226.652 92.9463C226.652 91.9907 227.434 91.209 228.39 91.209H332.173Z" fill="#003B7A"/>
<path d="M421.21 84.6934H403.837C401.921 84.6934 400.362 83.1351 400.362 81.2188C400.362 79.3025 401.921 77.7441 403.837 77.7441H421.21C423.126 77.7441 424.685 79.3025 424.685 81.2188C424.685 83.1351 423.126 84.6934 421.21 84.6934Z" fill="#0065B9"/>
</g>
<defs>
<clipPath id="clip0_2652_1293">
<rect width="524.67" height="531.397" fill="white"/>
</clipPath>
</defs>
</svg>
