<svg width="732" height="551" viewBox="0 0 732 551" fill="none" xmlns="http://www.w3.org/2000/svg">
<g clip-path="url(#clip0_3048_2)">
<path d="M317.681 178.648C343.098 178.648 363.703 158.044 363.703 132.627C363.703 107.21 343.098 86.6055 317.681 86.6055C292.265 86.6055 271.66 107.21 271.66 132.627C271.66 158.044 292.265 178.648 317.681 178.648Z" fill="#0065B9"/>
<path d="M0 334.133C0 334.793 0.53003 335.323 1.19006 335.323H730.48C731.14 335.323 731.67 334.793 731.67 334.133C731.67 333.473 731.14 332.943 730.48 332.943H1.19006C0.53003 332.943 0 333.473 0 334.133Z" fill="#3F3D56"/>
<path d="M466.984 81.6055L470.811 130.557L526.268 107.393L494.984 57.6055L466.984 81.6055Z" fill="#A0616A"/>
<path d="M465.323 96.519C488.154 96.519 506.662 78.011 506.662 55.1804C506.662 32.3497 488.154 13.8418 465.323 13.8418C442.492 13.8418 423.984 32.3497 423.984 55.1804C423.984 78.011 442.492 96.519 465.323 96.519Z" fill="#A0616A"/>
<path d="M387.984 440.605L394.984 503.393L345.984 496.605L361.984 438.605L387.984 440.605Z" fill="#A0616A"/>
<path d="M578.984 449.605L585.984 512.393L536.984 505.605L552.984 447.605L578.984 449.605Z" fill="#A0616A"/>
<path d="M462.484 260.105C461.815 260.105 408.339 262.791 373.007 264.568C356.285 265.41 343.555 279.884 344.853 296.577L357.484 459.105L393.484 460.105L394.362 329.105L465.484 333.105L462.484 260.105Z" fill="#2F2E41"/>
<path d="M619.484 259.105C619.484 259.105 628.484 328.105 621.484 335.105C614.484 342.105 394.984 329.605 394.984 329.605C394.984 329.605 443.138 260.068 451.811 258.087C460.484 256.105 598.484 249.105 598.484 249.105L619.484 259.105Z" fill="#2F2E41"/>
<path d="M335.126 172.233C326.767 160.543 326.023 146.753 333.464 141.435C340.905 136.116 353.711 141.283 362.072 152.979C365.475 157.605 367.722 162.979 368.623 168.651L403.415 218.633L383.615 232.341L347.84 183.507C342.763 180.818 338.403 176.953 335.126 172.233Z" fill="#A0616A"/>
<path d="M465.674 331.017C452.926 337.655 439.169 336.458 434.946 328.345C430.723 320.232 437.634 308.277 450.387 301.639C455.444 298.917 461.08 297.446 466.823 297.35L521.188 269.908L531.985 291.435L478.618 320.009C475.244 324.66 470.806 328.435 465.674 331.017Z" fill="#A0616A"/>
<path d="M464.984 112.605L515.984 91.6055L611.984 239.605C611.984 239.605 544.984 254.605 521.984 257.605C498.984 260.605 472.984 248.605 472.984 248.605L464.984 112.605Z" fill="#E6E6E6"/>
<path d="M526.984 137.605L508.484 79.8965L532.484 98.1051C532.484 98.1051 600.484 143.105 600.484 162.105C600.484 181.105 621.484 239.105 621.484 239.105C621.484 239.105 644.984 258.605 636.984 276.605C628.984 294.605 647.484 292.105 649.484 305.105C651.484 318.105 620.984 335.605 620.984 335.605C620.984 335.605 613.484 262.105 589.484 262.105C565.484 262.105 526.984 137.605 526.984 137.605Z" fill="#3F3D56"/>
<path d="M468.568 111.131L443.484 121.106C443.484 121.106 447.484 191.106 451.484 197.106C455.484 203.106 469.484 235.106 469.484 235.106V245.536C469.484 245.536 441.484 254.107 442.484 259.107C443.484 264.107 508.484 278.107 508.484 278.107C508.484 278.107 495.484 238.106 487.484 225.106C479.484 212.106 468.568 111.131 468.568 111.131Z" fill="#3F3D56"/>
<path d="M527.484 97.1068C527.484 97.1068 583.484 94.1068 595.484 124.107C607.484 154.107 617.484 252.107 617.484 252.107L495.484 318.481L474.484 286.107L556.484 222.107L527.484 97.1068Z" fill="#3F3D56"/>
<path d="M452.484 121.106C452.484 121.106 423.484 117.106 418.484 151.106C413.484 185.106 416.662 189.606 416.662 189.606L408.484 209.106L381.484 179.106L355.484 196.106C355.484 196.106 402.484 272.106 421.484 270.106C440.484 268.106 468.484 213.106 468.484 213.106L452.484 121.106Z" fill="#3F3D56"/>
<path d="M597.323 270.145L582.484 480.106L543.984 478.606C543.984 478.606 535.484 280.106 535.484 277.106C535.484 274.106 539.484 257.106 564.484 256.106C589.484 255.106 597.323 270.145 597.323 270.145Z" fill="#2F2E41"/>
<path d="M541.484 484.105C541.484 484.105 561.484 478.105 564.484 482.105C567.484 486.105 584.484 488.105 584.484 488.105L589.484 537.105C589.484 537.105 575.484 547.105 573.484 549.105C571.484 551.105 518.484 553.105 517.484 541.105C516.484 529.105 531.484 514.105 531.484 514.105L541.484 484.105Z" fill="#2F2E41"/>
<path d="M394.484 470.105C394.484 470.105 400.484 465.105 402.484 479.105C404.484 493.105 411.484 516.105 401.484 519.105C391.484 522.105 291.484 523.105 291.484 514.105V505.105L300.484 498.105L318.488 495.236C318.488 495.236 353.484 463.105 357.484 463.105C361.484 463.105 374.484 476.105 374.484 476.105L394.484 470.105Z" fill="#2F2E41"/>
<path d="M505.984 77.606C505.984 77.606 485.984 53.606 477.984 55.606C469.984 57.606 474.984 60.606 474.984 60.606L454.984 38.606C454.984 38.606 438.984 32.606 423.984 51.606C423.984 51.606 414.984 35.606 423.984 26.606C432.984 17.606 435.984 18.606 437.984 13.606C439.984 8.60599 453.984 4.60599 453.984 4.60599C453.984 4.60599 453.181 -2.59086 457.583 1.00756C461.984 4.60598 472.977 4.60599 472.977 4.60599C472.977 4.60599 473.039 0.605987 477.512 4.60599C481.984 8.60599 486.984 6.60599 486.984 6.60599C486.984 6.60599 486.984 13.5272 490.484 13.5666C493.984 13.606 499.984 8.60599 500.984 12.606C501.984 16.606 508.984 18.606 509.984 30.606C510.984 42.606 505.984 77.606 505.984 77.606Z" fill="#2F2E41"/>
<path d="M285.084 107.213H122.266C112.582 107.213 104.731 115.063 104.731 124.747V124.747C104.731 134.431 112.582 142.282 122.266 142.282H285.084C294.768 142.282 302.619 134.431 302.619 124.747C302.619 115.063 294.768 107.213 285.084 107.213Z" fill="#3F3D56"/>
<path d="M285.293 30.6055H125.396V205.949H285.293V30.6055Z" fill="white"/>
<path d="M286.293 206.948H124.396V29.6055H286.293V206.948ZM126.396 204.948H284.293V31.6055H126.396V204.948Z" fill="#3F3D56"/>
<path d="M295.521 132.68H115.168C102.256 132.68 91.7891 143.147 91.7891 156.059V156.059C91.7891 168.971 102.256 179.438 115.168 179.438H295.521C308.433 179.438 318.9 168.971 318.9 156.059C318.9 143.147 308.433 132.68 295.521 132.68Z" fill="#3F3D56"/>
<path d="M332.26 171.507C334.565 171.507 336.435 165.245 336.435 157.521C336.435 149.797 334.565 143.535 332.26 143.535C329.954 143.535 328.085 149.797 328.085 157.521C328.085 165.245 329.954 171.507 332.26 171.507Z" fill="#3F3D56"/>
<path d="M73.42 169.836C76.1868 169.836 78.4298 163.761 78.4298 156.267C78.4298 148.774 76.1868 142.699 73.42 142.699C70.6531 142.699 68.4102 148.774 68.4102 156.267C68.4102 163.761 70.6531 169.836 73.42 169.836Z" fill="#3F3D56"/>
<path d="M103.479 154.389H74.6729V157.311H103.479V154.389Z" fill="#3F3D56"/>
<path d="M329.755 155.643H306.376V159.817H329.755V155.643Z" fill="#3F3D56"/>
<path d="M302.334 337.956H129.438C115.77 337.956 104.648 326.835 104.648 313.166V189.325C104.648 175.656 115.77 164.535 129.438 164.535H302.334C316.003 164.535 327.123 175.656 327.123 189.325V313.166C327.123 326.835 316.003 337.956 302.334 337.956Z" fill="#3F3D56"/>
<path d="M123.518 263.771C126.516 263.771 128.945 261.341 128.945 258.343C128.945 255.346 126.516 252.916 123.518 252.916C120.521 252.916 118.091 255.346 118.091 258.343C118.091 261.341 120.521 263.771 123.518 263.771Z" fill="white"/>
<path d="M131.033 281.304C134.03 281.304 136.46 278.874 136.46 275.877C136.46 272.879 134.03 270.449 131.033 270.449C128.035 270.449 125.605 272.879 125.605 275.877C125.605 278.874 128.035 281.304 131.033 281.304Z" fill="white"/>
<path d="M136.46 297.169C139.457 297.169 141.887 294.739 141.887 291.742C141.887 288.744 139.457 286.314 136.46 286.314C133.462 286.314 131.032 288.744 131.032 291.742C131.032 294.739 133.462 297.169 136.46 297.169Z" fill="white"/>
<path d="M146.062 313.45C149.059 313.45 151.489 311.02 151.489 308.023C151.489 305.026 149.059 302.596 146.062 302.596C143.065 302.596 140.635 305.026 140.635 308.023C140.635 311.02 143.065 313.45 146.062 313.45Z" fill="white"/>
<path d="M161.926 313.45C164.924 313.45 167.354 311.02 167.354 308.023C167.354 305.026 164.924 302.596 161.926 302.596C158.929 302.596 156.499 305.026 156.499 308.023C156.499 311.02 158.929 313.45 161.926 313.45Z" fill="white"/>
<path d="M177.791 313.45C180.788 313.45 183.218 311.02 183.218 308.023C183.218 305.026 180.788 302.596 177.791 302.596C174.793 302.596 172.363 305.026 172.363 308.023C172.363 311.02 174.793 313.45 177.791 313.45Z" fill="white"/>
<path d="M193.655 313.45C196.652 313.45 199.082 311.02 199.082 308.023C199.082 305.026 196.652 302.596 193.655 302.596C190.657 302.596 188.228 305.026 188.228 308.023C188.228 311.02 190.657 313.45 193.655 313.45Z" fill="white"/>
<path d="M209.52 313.45C212.517 313.45 214.947 311.02 214.947 308.023C214.947 305.026 212.517 302.596 209.52 302.596C206.523 302.596 204.093 305.026 204.093 308.023C204.093 311.02 206.523 313.45 209.52 313.45Z" fill="white"/>
<path d="M225.384 313.45C228.382 313.45 230.812 311.02 230.812 308.023C230.812 305.026 228.382 302.596 225.384 302.596C222.387 302.596 219.957 305.026 219.957 308.023C219.957 311.02 222.387 313.45 225.384 313.45Z" fill="white"/>
<path d="M241.249 313.45C244.246 313.45 246.676 311.02 246.676 308.023C246.676 305.026 244.246 302.596 241.249 302.596C238.251 302.596 235.821 305.026 235.821 308.023C235.821 311.02 238.251 313.45 241.249 313.45Z" fill="white"/>
<path d="M257.113 313.45C260.11 313.45 262.54 311.02 262.54 308.023C262.54 305.026 260.11 302.596 257.113 302.596C254.115 302.596 251.686 305.026 251.686 308.023C251.686 311.02 254.115 313.45 257.113 313.45Z" fill="white"/>
<path d="M272.977 313.45C275.975 313.45 278.404 311.02 278.404 308.023C278.404 305.026 275.975 302.596 272.977 302.596C269.98 302.596 267.55 305.026 267.55 308.023C267.55 311.02 269.98 313.45 272.977 313.45Z" fill="white"/>
<path d="M288.841 313.45C291.839 313.45 294.269 311.02 294.269 308.023C294.269 305.026 291.839 302.596 288.841 302.596C285.844 302.596 283.414 305.026 283.414 308.023C283.414 311.02 285.844 313.45 288.841 313.45Z" fill="white"/>
<path d="M152.617 297.169C155.614 297.169 158.044 294.739 158.044 291.742C158.044 288.744 155.614 286.314 152.617 286.314C149.619 286.314 147.189 288.744 147.189 291.742C147.189 294.739 149.619 297.169 152.617 297.169Z" fill="white"/>
<path d="M168.773 297.169C171.77 297.169 174.2 294.739 174.2 291.742C174.2 288.744 171.77 286.314 168.773 286.314C165.776 286.314 163.346 288.744 163.346 291.742C163.346 294.739 165.776 297.169 168.773 297.169Z" fill="white"/>
<path d="M184.93 297.169C187.928 297.169 190.357 294.739 190.357 291.742C190.357 288.744 187.928 286.314 184.93 286.314C181.933 286.314 179.503 288.744 179.503 291.742C179.503 294.739 181.933 297.169 184.93 297.169Z" fill="white"/>
<path d="M201.086 297.169C204.084 297.169 206.514 294.739 206.514 291.742C206.514 288.744 204.084 286.314 201.086 286.314C198.089 286.314 195.659 288.744 195.659 291.742C195.659 294.739 198.089 297.169 201.086 297.169Z" fill="white"/>
<path d="M217.243 297.169C220.24 297.169 222.67 294.739 222.67 291.742C222.67 288.744 220.24 286.314 217.243 286.314C214.245 286.314 211.815 288.744 211.815 291.742C211.815 294.739 214.245 297.169 217.243 297.169Z" fill="white"/>
<path d="M233.4 297.169C236.397 297.169 238.827 294.739 238.827 291.742C238.827 288.744 236.397 286.314 233.4 286.314C230.403 286.314 227.973 288.744 227.973 291.742C227.973 294.739 230.403 297.169 233.4 297.169Z" fill="white"/>
<path d="M249.556 297.169C252.554 297.169 254.983 294.739 254.983 291.742C254.983 288.744 252.554 286.314 249.556 286.314C246.559 286.314 244.129 288.744 244.129 291.742C244.129 294.739 246.559 297.169 249.556 297.169Z" fill="white"/>
<path d="M265.712 297.169C268.71 297.169 271.14 294.739 271.14 291.742C271.14 288.744 268.71 286.314 265.712 286.314C262.715 286.314 260.285 288.744 260.285 291.742C260.285 294.739 262.715 297.169 265.712 297.169Z" fill="white"/>
<path d="M281.87 297.169C284.867 297.169 287.297 294.739 287.297 291.742C287.297 288.744 284.867 286.314 281.87 286.314C278.872 286.314 276.442 288.744 276.442 291.742C276.442 294.739 278.872 297.169 281.87 297.169Z" fill="white"/>
<path d="M298.026 297.169C301.023 297.169 303.453 294.739 303.453 291.742C303.453 288.744 301.023 286.314 298.026 286.314C295.029 286.314 292.599 288.744 292.599 291.742C292.599 294.739 295.029 297.169 298.026 297.169Z" fill="white"/>
<path d="M147.315 281.304C150.312 281.304 152.742 278.874 152.742 275.877C152.742 272.879 150.312 270.449 147.315 270.449C144.318 270.449 141.888 272.879 141.888 275.877C141.888 278.874 144.318 281.304 147.315 281.304Z" fill="white"/>
<path d="M163.596 281.304C166.594 281.304 169.024 278.874 169.024 275.877C169.024 272.879 166.594 270.449 163.596 270.449C160.599 270.449 158.169 272.879 158.169 275.877C158.169 278.874 160.599 281.304 163.596 281.304Z" fill="white"/>
<path d="M179.878 281.304C182.876 281.304 185.306 278.874 185.306 275.877C185.306 272.879 182.876 270.449 179.878 270.449C176.881 270.449 174.451 272.879 174.451 275.877C174.451 278.874 176.881 281.304 179.878 281.304Z" fill="white"/>
<path d="M196.16 281.304C199.157 281.304 201.587 278.874 201.587 275.877C201.587 272.879 199.157 270.449 196.16 270.449C193.162 270.449 190.732 272.879 190.732 275.877C190.732 278.874 193.162 281.304 196.16 281.304Z" fill="white"/>
<path d="M212.442 281.304C215.439 281.304 217.869 278.874 217.869 275.877C217.869 272.879 215.439 270.449 212.442 270.449C209.445 270.449 207.015 272.879 207.015 275.877C207.015 278.874 209.445 281.304 212.442 281.304Z" fill="white"/>
<path d="M228.724 281.304C231.722 281.304 234.151 278.874 234.151 275.877C234.151 272.879 231.722 270.449 228.724 270.449C225.727 270.449 223.297 272.879 223.297 275.877C223.297 278.874 225.727 281.304 228.724 281.304Z" fill="white"/>
<path d="M245.005 281.304C248.003 281.304 250.433 278.874 250.433 275.877C250.433 272.879 248.003 270.449 245.005 270.449C242.008 270.449 239.578 272.879 239.578 275.877C239.578 278.874 242.008 281.304 245.005 281.304Z" fill="white"/>
<path d="M261.288 281.304C264.285 281.304 266.715 278.874 266.715 275.877C266.715 272.879 264.285 270.449 261.288 270.449C258.29 270.449 255.86 272.879 255.86 275.877C255.86 278.874 258.29 281.304 261.288 281.304Z" fill="white"/>
<path d="M277.57 281.304C280.567 281.304 282.997 278.874 282.997 275.877C282.997 272.879 280.567 270.449 277.57 270.449C274.572 270.449 272.143 272.879 272.143 275.877C272.143 278.874 274.572 281.304 277.57 281.304Z" fill="white"/>
<path d="M293.851 281.304C296.849 281.304 299.278 278.874 299.278 275.877C299.278 272.879 296.849 270.449 293.851 270.449C290.854 270.449 288.424 272.879 288.424 275.877C288.424 278.874 290.854 281.304 293.851 281.304Z" fill="white"/>
<path d="M310.133 281.304C313.131 281.304 315.561 278.874 315.561 275.877C315.561 272.879 313.131 270.449 310.133 270.449C307.136 270.449 304.706 272.879 304.706 275.877C304.706 278.874 307.136 281.304 310.133 281.304Z" fill="white"/>
<path d="M139.8 263.771C142.798 263.771 145.228 261.341 145.228 258.343C145.228 255.346 142.798 252.916 139.8 252.916C136.803 252.916 134.373 255.346 134.373 258.343C134.373 261.341 136.803 263.771 139.8 263.771Z" fill="white"/>
<path d="M156.082 263.771C159.079 263.771 161.509 261.341 161.509 258.343C161.509 255.346 159.079 252.916 156.082 252.916C153.084 252.916 150.654 255.346 150.654 258.343C150.654 261.341 153.084 263.771 156.082 263.771Z" fill="white"/>
<path d="M172.364 263.771C175.361 263.771 177.791 261.341 177.791 258.343C177.791 255.346 175.361 252.916 172.364 252.916C169.366 252.916 166.937 255.346 166.937 258.343C166.937 261.341 169.366 263.771 172.364 263.771Z" fill="white"/>
<path d="M188.645 263.771C191.642 263.771 194.072 261.341 194.072 258.343C194.072 255.346 191.642 252.916 188.645 252.916C185.648 252.916 183.218 255.346 183.218 258.343C183.218 261.341 185.648 263.771 188.645 263.771Z" fill="white"/>
<path d="M204.927 263.771C207.925 263.771 210.355 261.341 210.355 258.343C210.355 255.346 207.925 252.916 204.927 252.916C201.93 252.916 199.5 255.346 199.5 258.343C199.5 261.341 201.93 263.771 204.927 263.771Z" fill="white"/>
<path d="M221.21 263.771C224.207 263.771 226.637 261.341 226.637 258.343C226.637 255.346 224.207 252.916 221.21 252.916C218.212 252.916 215.782 255.346 215.782 258.343C215.782 261.341 218.212 263.771 221.21 263.771Z" fill="white"/>
<path d="M237.491 263.771C240.488 263.771 242.918 261.341 242.918 258.343C242.918 255.346 240.488 252.916 237.491 252.916C234.493 252.916 232.063 255.346 232.063 258.343C232.063 261.341 234.493 263.771 237.491 263.771Z" fill="white"/>
<path d="M253.773 263.771C256.77 263.771 259.2 261.341 259.2 258.343C259.2 255.346 256.77 252.916 253.773 252.916C250.776 252.916 248.346 255.346 248.346 258.343C248.346 261.341 250.776 263.771 253.773 263.771Z" fill="white"/>
<path d="M270.054 263.771C273.052 263.771 275.482 261.341 275.482 258.343C275.482 255.346 273.052 252.916 270.054 252.916C267.057 252.916 264.627 255.346 264.627 258.343C264.627 261.341 267.057 263.771 270.054 263.771Z" fill="white"/>
<path d="M286.336 263.771C289.334 263.771 291.764 261.341 291.764 258.343C291.764 255.346 289.334 252.916 286.336 252.916C283.339 252.916 280.909 255.346 280.909 258.343C280.909 261.341 283.339 263.771 286.336 263.771Z" fill="white"/>
<path d="M302.619 263.771C305.616 263.771 308.046 261.341 308.046 258.343C308.046 255.346 305.616 252.916 302.619 252.916C299.621 252.916 297.191 255.346 297.191 258.343C297.191 261.341 299.621 263.771 302.619 263.771Z" fill="white"/>
<path d="M128.11 209.079C139.869 209.079 149.402 199.547 149.402 187.788C149.402 176.029 139.869 166.496 128.11 166.496C116.351 166.496 106.818 176.029 106.818 187.788C106.818 199.547 116.351 209.079 128.11 209.079Z" fill="white"/>
<path d="M300.949 209.079C312.708 209.079 322.241 199.547 322.241 187.788C322.241 176.029 312.708 166.496 300.949 166.496C289.19 166.496 279.657 176.029 279.657 187.788C279.657 199.547 289.19 209.079 300.949 209.079Z" fill="white"/>
<path d="M180.522 179.438H246.223C249.167 179.438 251.851 181.128 253.121 183.785L270.853 220.844C273.281 225.92 269.581 231.793 263.954 231.793H167.815C162.567 231.793 158.879 226.628 160.581 221.664L173.288 184.605C174.348 181.514 177.254 179.438 180.522 179.438Z" fill="white"/>
<path d="M251.984 56.6055H155.567V58.6055H251.984V56.6055Z" fill="#3F3D56"/>
<path d="M251.984 74.6055H155.567V76.6055H251.984V74.6055Z" fill="#3F3D56"/>
<path d="M251.984 92.6055H155.567V94.6055H251.984V92.6055Z" fill="#3F3D56"/>
</g>
<defs>
<clipPath id="clip0_3048_2">
<rect width="731.67" height="550.618" fill="white"/>
</clipPath>
</defs>
</svg>
